<?xml version="1.0" encoding="UTF-8"?>
<!--
  ============================================================
  너울 — 수평형 로고
  ============================================================
  저작권자·상표 출원인: 김태민
  상표 출원번호: TN26005859KJ (국문 문자 상표)
  지정상품 9류 / 지정서비스 41류
  최초 공개일: 2026-04-24
  라이선스: © 2026 김태민. All rights reserved.

  SSoT Color Tokens (Immutable):
    Deep Blue   #0A3D62 — 주 타이포
    Ocean Blue  #1B6CA8 — 파도 진한 라인 + 태그라인
    Sky Blue    #3498DB — 파도 중간 라인
    Light Wave  #AED6F1 — 파도 옅은 라인

  ⚠️  한글 텍스트는 Noto Serif CJK KR Bold 글리프를 SVG path로
      인코딩하여 폰트 독립적으로 렌더링됩니다. 이는 브라우저 폰트
      미설치 환경에서도 100% 동일 렌더링을 보장하며, 상표 증거로서
      시각적 일관성을 유지하는 핵심 안전장치입니다.
  ============================================================
-->
<svg xmlns="http://www.w3.org/2000/svg"
     viewBox="0 0 1200 640"
     preserveAspectRatio="xMidYMid meet"
     role="img"
     aria-label="너울 — 교육자료 배포 시스템">

  <title>수평형 로고</title>
  <desc>상단 2줄 파도 + 한글 "너 울" + 하단 2줄 파도로 구성된 너울 브랜드 로고. 저작권자 김태민, 상표 출원번호 TN26005859KJ.</desc>
  <!-- 상단 파도 라인 -->
  <path d="M 100 100 Q 300 70, 500 100 T 900 100 T 1100 100" fill="none" stroke="#AED6F1" stroke-width="5" stroke-linecap="round"/>
  <path d="M 100 170 Q 300 140, 500 170 T 900 170 T 1100 170" fill="none" stroke="#3498DB" stroke-width="5" stroke-linecap="round"/>

  <!-- 메인 텍스트 "너 울" (Noto Serif CJK KR Bold 글리프 path 인코딩) -->
  <g fill="#0A3D62" fill-rule="nonzero">
    <g transform="translate(322.84, 420) scale(0.26, -0.26)">
      <path d="M257 357V582L259 634C259 648 253 656 241 659C209 666 135 671 93 671C84 671 80 667 78 662L71 631C98 622 125 608 141 593V268C141 242 143 220 145 215C162 167 186 150 245 150C257 150 272 151 289 154C389 165 532 199 619 238C626 241 628 246 628 252L621 280C620 286 616 288 607 286C524 265 371 247 275 246C262 245 257 251 257 263ZM790 -110C814 -42 828 81 828 147V738L833 799C833 812 829 821 818 826C782 841 705 856 658 858C648 858 645 855 643 851L632 816C667 802 698 780 713 757V529C662 526 581 524 547 524C517 524 475 527 448 531L439 515C437 511 438 507 442 502C467 479 496 456 531 438C547 445 581 454 596 456C618 459 672 462 713 463V111C713 64 718 -73 725 -110Z"/>
    </g>
    <g transform="translate(626.00, 420) scale(0.26, -0.26)">
      <path d="M723 654C723 751 624 817 484 817C344 817 245 751 245 654C245 557 344 491 484 491C624 491 723 557 723 654ZM605 654C605 598 555 565 484 565C412 565 362 598 362 654C362 709 412 744 484 744C555 744 605 709 605 654ZM738 61C744 67 751 85 751 102C751 107 747 112 743 114L724 123C732 143 742 184 744 208L760 242C763 250 762 256 757 259C745 265 715 277 700 283C693 285 686 285 681 283L645 267L534 264C542 288 548 317 548 343V359L793 361C825 361 894 359 920 356C933 362 950 383 950 407C950 418 943 425 933 429C908 438 848 447 806 448L763 429C692 424 224 418 159 419C122 420 70 424 31 431L22 413C20 409 21 403 25 400C53 374 97 346 137 333C164 341 224 351 250 353C272 355 345 356 432 358V321C432 304 434 282 437 263L295 262C268 262 222 266 192 272L185 257C182 252 183 249 188 245C211 223 244 200 276 184C303 191 343 197 366 199C401 201 561 202 628 201C629 187 628 145 626 126L605 121C568 119 422 118 360 118C326 122 237 124 200 124C193 124 189 121 188 117L184 92C207 84 228 73 241 60V-18C241 -68 266 -94 334 -94L776 -92C783 -92 790 -90 795 -85C801 -79 808 -62 808 -38C808 -28 801 -20 790 -18C770 -13 724 -9 694 -9L661 -25C601 -27 444 -28 377 -27C363 -27 358 -21 358 -7V32V57Z"/>
    </g>
  </g>

  <!-- 하단 파도 라인 -->
  <path d="M 100 490 Q 300 460, 500 490 T 900 490 T 1100 490" fill="none" stroke="#1B6CA8" stroke-width="5" stroke-linecap="round"/>
  <path d="M 100 550 Q 300 520, 500 550 T 900 550 T 1100 550" fill="none" stroke="#AED6F1" stroke-width="5" stroke-linecap="round"/>

</svg>
